<?xml version="1.0" standalone="no"?>
<svg viewBox="0 0 200 200" xmlns="http://www.w3.org/2000/svg">
  <path fill="#FFC212" d="M29.7,-48.4C40.7,-45.1,53.4,-41.6,60.5,-33.5C67.6,-25.5,69.1,-12.7,65.6,-2C62.1,8.7,53.7,17.4,44.8,22.4C35.9,27.3,26.5,28.5,19,39.2C11.4,50,5.7,70.2,-3.2,75.8C-12.1,81.3,-24.2,72.1,-35.9,63.8C-47.6,55.4,-59,48,-58.5,37.5C-57.9,27.1,-45.5,13.5,-39.2,3.6C-33,-6.3,-32.7,-12.5,-34,-24.2C-35.2,-35.9,-37.9,-53.1,-32.5,-59.6C-27,-66.2,-13.5,-62.1,-2.1,-58.5C9.3,-54.9,18.7,-51.7,29.7,-48.4Z" transform="translate(100 100)" />
</svg>
